<svg width="126" height="48" viewBox="0 0 126 48" fill="none" xmlns="http://www.w3.org/2000/svg">
<path d="M48.9999 17.1818V22.8636H34.6249V17.1818H48.9999ZM37.409 11.9545H45.2499V31.983C45.2499 32.286 45.302 32.5417 45.4061 32.75C45.5103 32.9489 45.6713 33.1004 45.8891 33.2045C46.1069 33.2992 46.3862 33.3466 46.7272 33.3466C46.9639 33.3466 47.2385 33.3182 47.551 33.2614C47.873 33.2045 48.1097 33.1572 48.2612 33.1193L49.3976 38.6307C49.0472 38.7348 48.5453 38.8627 47.8919 39.0142C47.248 39.1657 46.4809 39.2652 45.5908 39.3125C43.7915 39.4072 42.2811 39.2225 41.0595 38.7585C39.8379 38.285 38.9194 37.5417 38.3039 36.5284C37.6883 35.5152 37.39 34.2462 37.409 32.7216V11.9545ZM62.4764 39.3977C60.109 39.3977 58.0825 38.929 56.3969 37.9915C54.7113 37.0445 53.4187 35.7282 52.5191 34.0426C51.6194 32.3475 51.1696 30.3826 51.1696 28.1477C51.1696 25.9129 51.6194 23.9527 52.5191 22.267C53.4187 20.572 54.7113 19.2557 56.3969 18.3182C58.0825 17.3712 60.109 16.8977 62.4764 16.8977C64.8439 16.8977 66.8704 17.3712 68.556 18.3182C70.2416 19.2557 71.5342 20.572 72.4338 22.267C73.3334 23.9527 73.7833 25.9129 73.7833 28.1477C73.7833 30.3826 73.3334 32.3475 72.4338 34.0426C71.5342 35.7282 70.2416 37.0445 68.556 37.9915C66.8704 38.929 64.8439 39.3977 62.4764 39.3977ZM62.5333 33.6023C63.1961 33.6023 63.7691 33.3797 64.252 32.9347C64.735 32.4896 65.109 31.8551 65.3742 31.0312C65.6393 30.2074 65.7719 29.2273 65.7719 28.0909C65.7719 26.9451 65.6393 25.965 65.3742 25.1506C65.109 24.3267 64.735 23.6922 64.252 23.2472C63.7691 22.8021 63.1961 22.5795 62.5333 22.5795C61.8325 22.5795 61.2312 22.8021 60.7293 23.2472C60.2274 23.6922 59.8439 24.3267 59.5787 25.1506C59.3136 25.965 59.181 26.9451 59.181 28.0909C59.181 29.2273 59.3136 30.2074 59.5787 31.0312C59.8439 31.8551 60.2274 32.4896 60.7293 32.9347C61.2312 33.3797 61.8325 33.6023 62.5333 33.6023Z" fill="#4EA8DE"/>
<path d="M84.8628 39.2841C83.3098 39.2841 81.8798 38.8769 80.573 38.0625C79.2757 37.2481 78.234 36.0123 77.448 34.3551C76.6715 32.6979 76.2833 30.6098 76.2833 28.0909C76.2833 25.4583 76.6905 23.3182 77.5048 21.6705C78.3287 20.0227 79.3893 18.8153 80.6867 18.0483C81.9935 17.2812 83.3666 16.8977 84.806 16.8977C85.8855 16.8977 86.8325 17.0871 87.6469 17.4659C88.4613 17.8352 89.1431 18.3324 89.6924 18.9574C90.2416 19.5729 90.6583 20.25 90.9424 20.9886H91.056V9.90909H98.8969V39H91.1128V35.4205H90.9424C90.6393 36.1591 90.2037 36.822 89.6355 37.4091C89.0768 37.9867 88.395 38.446 87.5901 38.7869C86.7946 39.1184 85.8855 39.2841 84.8628 39.2841ZM87.7605 33.2614C88.4802 33.2614 89.0958 33.053 89.6071 32.6364C90.128 32.2102 90.5257 31.6136 90.8003 30.8466C91.0844 30.0701 91.2264 29.1515 91.2264 28.0909C91.2264 27.0114 91.0844 26.0881 90.8003 25.321C90.5257 24.5445 90.128 23.9527 89.6071 23.5455C89.0958 23.1288 88.4802 22.9205 87.7605 22.9205C87.0408 22.9205 86.4253 23.1288 85.9139 23.5455C85.412 23.9527 85.0238 24.5445 84.7492 25.321C84.484 26.0881 84.3514 27.0114 84.3514 28.0909C84.3514 29.1705 84.484 30.0985 84.7492 30.875C85.0238 31.642 85.412 32.2339 85.9139 32.6506C86.4253 33.0578 87.0408 33.2614 87.7605 33.2614ZM113.258 39.3977C110.89 39.3977 108.864 38.929 107.178 37.9915C105.493 37.0445 104.2 35.7282 103.3 34.0426C102.401 32.3475 101.951 30.3826 101.951 28.1477C101.951 25.9129 102.401 23.9527 103.3 22.267C104.2 20.572 105.493 19.2557 107.178 18.3182C108.864 17.3712 110.89 16.8977 113.258 16.8977C115.625 16.8977 117.652 17.3712 119.337 18.3182C121.023 19.2557 122.315 20.572 123.215 22.267C124.115 23.9527 124.565 25.9129 124.565 28.1477C124.565 30.3826 124.115 32.3475 123.215 34.0426C122.315 35.7282 121.023 37.0445 119.337 37.9915C117.652 38.929 115.625 39.3977 113.258 39.3977ZM113.315 33.6023C113.977 33.6023 114.55 33.3797 115.033 32.9347C115.516 32.4896 115.89 31.8551 116.155 31.0312C116.421 30.2074 116.553 29.2273 116.553 28.0909C116.553 26.9451 116.421 25.965 116.155 25.1506C115.89 24.3267 115.516 23.6922 115.033 23.2472C114.55 22.8021 113.977 22.5795 113.315 22.5795C112.614 22.5795 112.012 22.8021 111.511 23.2472C111.009 23.6922 110.625 24.3267 110.36 25.1506C110.095 25.965 109.962 26.9451 109.962 28.0909C109.962 29.2273 110.095 30.2074 110.36 31.0312C110.625 31.8551 111.009 32.4896 111.511 32.9347C112.012 33.3797 112.614 33.6023 113.315 33.6023Z" fill="#5E60CE"/>
<path fill-rule="evenodd" clip-rule="evenodd" d="M11.0248 10L11.0286 10H11.0214L11.0248 10ZM11.0248 10C10.8654 10.0013 10.7117 10.0588 10.5917 10.1622L10.5273 10.2186C6.39766 14.7656 4.10454 20.6454 4.08196 26.745C2.32955 27.8643 1.03238 29.5543 0.417141 31.5197C-0.198101 33.485 -0.0922939 35.6007 0.716072 37.4971C1.56764 35.6455 2.99119 34.1058 4.78378 33.0975C4.96356 33.8642 5.20298 34.6161 5.49993 35.3467C5.53759 35.4871 5.62106 35.6114 5.73751 35.7006C5.85396 35.7898 5.99694 35.8388 6.14446 35.8402H16.0846C16.2851 35.8402 16.4856 35.6498 16.5859 35.3537C16.8757 34.6592 17.0777 33.9322 17.1874 33.1892C18.9834 34.1932 20.4082 35.7342 21.2551 37.5887C22.1123 35.7017 22.245 33.5727 21.6286 31.5967C21.0123 29.6206 19.6887 27.9319 17.9036 26.8437C17.9744 20.7082 15.6934 14.7718 11.5156 10.2186C11.4533 10.1501 11.3772 10.0952 11.2921 10.0576C11.208 10.0204 11.117 10.0008 11.0248 10ZM14.3706 37.683C14.538 37.6198 14.7166 37.5901 14.8958 37.5958H14.9602C15.1389 37.5985 15.3152 37.6362 15.4789 37.7067C15.6426 37.7772 15.7905 37.879 15.9138 38.0064C16.0371 38.1337 16.1334 38.2839 16.1972 38.4482C16.2609 38.6126 16.2908 38.7877 16.2851 38.9636V43.067C16.2851 43.4297 16.1387 43.7776 15.8782 44.0342C15.6176 44.2907 15.2642 44.4348 14.8958 44.4348C14.5273 44.4348 14.1739 44.2907 13.9134 44.0342C13.6528 43.7776 13.5064 43.4297 13.5064 43.067V38.9072C13.5083 38.7307 13.5459 38.5563 13.617 38.3943C13.6882 38.2323 13.7915 38.086 13.921 37.9638C14.0504 37.8416 14.2033 37.7462 14.3706 37.683ZM7.16138 37.5958C6.97915 37.5863 6.79684 37.613 6.6253 37.6743C6.45376 37.7356 6.2965 37.8302 6.16287 37.9525C6.02924 38.0749 5.92197 38.2225 5.84745 38.3865C5.77293 38.5505 5.73268 38.7275 5.72909 38.9072V43.067C5.72909 43.4297 5.87547 43.7776 6.13602 44.0342C6.39656 44.2907 6.74994 44.4348 7.11842 44.4348C7.48689 44.4348 7.84027 44.2907 8.10082 44.0342C8.36136 43.7776 8.50774 43.4297 8.50774 43.067V38.9636C8.51346 38.7877 8.48358 38.6126 8.41983 38.4482C8.35608 38.2839 8.25974 38.1337 8.13643 38.0064C8.01311 37.879 7.86529 37.7772 7.70157 37.7067C7.53786 37.6362 7.36153 37.5985 7.18287 37.5958H7.16138ZM10.3982 37.6869C10.5648 37.623 10.7425 37.592 10.9212 37.5958L10.9856 37.631C11.1643 37.6337 11.3406 37.6714 11.5043 37.7419C11.668 37.8124 11.8158 37.9143 11.9392 38.0416C12.0625 38.1689 12.1588 38.3191 12.2226 38.4835C12.2863 38.6478 12.3162 38.823 12.3105 38.9988V44.6392C12.3105 45.002 12.1641 45.3499 11.9036 45.6064C11.643 45.8629 11.2896 46.007 10.9212 46.007C10.5527 46.007 10.1993 45.8629 9.93875 45.6064C9.6782 45.3499 9.53183 45.002 9.53183 44.6392V38.9072C9.53555 38.7312 9.57444 38.5578 9.64629 38.3966C9.71813 38.2355 9.82151 38.0899 9.95053 37.9681C10.0795 37.8463 10.2317 37.7508 10.3982 37.6869Z" fill="#5E60CE"/>
</svg>
